<?xml version="1.0" encoding="iso-8859-1"?>
<!-- Uploaded to: SVG Repo, www.svgrepo.com, Generator: SVG Repo Mixer Tools -->
<!DOCTYPE svg PUBLIC "-//W3C//DTD SVG 1.1//EN" "http://www.w3.org/Graphics/SVG/1.1/DTD/svg11.dtd">
<svg fill="#eab676" height="800px" width="800px" version="1.1" id="Capa_1" xmlns="http://www.w3.org/2000/svg" xmlns:xlink="http://www.w3.org/1999/xlink"
	 viewBox="0 0 378.427 378.427" xml:space="preserve">
<path d="M209.347,121.098c-3.119-3.128-3.112-8.194,0.017-11.313c3.129-3.121,8.194-3.112,11.313,0.016l1.216,1.219
	c3.119,3.128,3.112,8.194-0.017,11.314c-1.561,1.557-3.605,2.335-5.648,2.335c-2.052,0-4.102-0.784-5.665-2.351L209.347,121.098z
	 M217.695,89.653c0,4.418,3.582,8,8,8h1.722c4.418,0,8-3.582,8-8s-3.582-8-8-8h-1.722C221.277,81.653,217.695,85.234,217.695,89.653
	z M139.341,164.166c3.67,2.461,8.639,1.481,11.1-2.189c2.461-3.67,1.48-8.639-2.189-11.1
	c-20.471-13.726-32.692-36.613-32.692-61.224C115.559,49.041,148.6,16,189.213,16s73.654,33.041,73.654,73.653
	c0,25.878-13.199,49.393-35.308,62.901c-3.771,2.304-4.959,7.228-2.655,10.998c1.508,2.468,4.139,3.83,6.834,3.83
	c1.422,0,2.861-0.379,4.163-1.174c26.904-16.438,42.966-45.057,42.966-76.554C278.868,40.218,238.649,0,189.213,0
	S99.559,40.218,99.559,89.653C99.559,119.608,114.431,147.463,139.341,164.166z M210.564,56.989l-1.216,1.219
	c-3.12,3.128-3.114,8.193,0.014,11.313c1.563,1.558,3.605,2.336,5.65,2.336c2.051,0,4.102-0.784,5.664-2.35l1.216-1.219
	c3.12-3.128,3.114-8.193-0.014-11.313C218.749,53.854,213.684,53.86,210.564,56.989z M189.941,81.653h-1.455c-4.418,0-8,3.582-8,8
	s3.582,8,8,8h1.455c4.418,0,8-3.582,8-8S194.359,81.653,189.941,81.653z M265.928,212.625c1.52,1.729,2.22,4.03,1.922,6.312
	l-19.858,152.523c-0.519,3.985-3.914,6.967-7.933,6.967H138.375c-4.019,0-7.414-2.981-7.933-6.967l-19.861-152.523
	c-0.298-2.283,0.402-4.583,1.922-6.312c1.519-1.729,3.709-2.721,6.011-2.721h36.533c3.42-8.619,9.421-21.432,18.512-40.328
	c3.697-7.685,6.891-14.322,8.297-17.619c1.257-2.948,4.152-4.861,7.357-4.861s6.102,1.913,7.359,4.86
	c1.405,3.293,4.594,9.921,8.286,17.595c9.097,18.909,15.102,31.729,18.522,40.353h36.537
	C262.219,209.904,264.41,210.896,265.928,212.625z M167.485,222.857c0.127,11.874,9.825,21.495,21.729,21.495
	s21.602-9.621,21.729-21.495c-0.072-0.447-0.222-1.032-0.439-1.736c-0.197-0.449-0.354-0.919-0.467-1.406
	c-3.259-9.268-14.031-31.66-19.596-43.227c-0.419-0.869-0.827-1.719-1.227-2.548c-0.402,0.837-0.814,1.695-1.237,2.573
	c-5.558,11.553-16.316,33.915-19.579,43.188c-0.114,0.497-0.275,0.977-0.477,1.434C167.706,221.832,167.557,222.412,167.485,222.857
	z M250.808,225.904h-24.007c-1.669,19.272-17.89,34.448-37.588,34.448s-35.919-15.175-37.588-34.448h-24.003l9.349,71.791
	c8.7,5.43,25.16,4.66,35.241-2.1c10.857-7.279,26.42-10.332,39.641-7.781c4.339,0.837,7.177,5.033,6.34,9.371
	c-0.839,4.338-5.035,7.179-9.371,6.339c-9.149-1.765-20.282,0.387-27.699,5.36c-10.806,7.245-27.686,10.422-41.799,6.881
	l6.076,46.662h87.633L250.808,225.904z M189.213,118.135c-4.418,0-8,3.582-8,8v1.724c0,4.418,3.582,8,8,8s8-3.582,8-8v-1.724
	C197.213,121.716,193.631,118.135,189.213,118.135z M169.082,58.208l-1.217-1.219c-3.122-3.127-8.188-3.131-11.313-0.011
	c-3.127,3.121-3.132,8.187-0.011,11.314l1.217,1.219c1.563,1.565,3.612,2.349,5.662,2.349c2.045,0,4.09-0.779,5.651-2.337
	C172.198,66.4,172.203,61.335,169.082,58.208z M160.732,89.653c0-4.418-3.582-8-8-8h-1.722c-4.418,0-8,3.582-8,8s3.582,8,8,8h1.722
	C157.15,97.653,160.732,94.071,160.732,89.653z M189.213,61.173c4.418,0,8-3.582,8-8V51.45c0-4.418-3.582-8-8-8s-8,3.582-8,8v1.723
	C181.213,57.591,184.795,61.173,189.213,61.173z M162.203,124.667c2.05,0,4.101-0.783,5.662-2.349l1.217-1.219
	c3.121-3.127,3.116-8.193-0.011-11.314c-3.127-3.122-8.192-3.116-11.313,0.011l-1.217,1.219c-3.121,3.127-3.116,8.193,0.011,11.314
	C158.113,123.889,160.158,124.667,162.203,124.667z"/>
</svg>