<?xml version="1.0" encoding="iso-8859-1"?>
<!-- Uploaded to: SVG Repo, www.svgrepo.com, Generator: SVG Repo Mixer Tools -->
<!DOCTYPE svg PUBLIC "-//W3C//DTD SVG 1.1//EN" "http://www.w3.org/Graphics/SVG/1.1/DTD/svg11.dtd">
<svg fill="#eab676" version="1.1" id="Capa_1" xmlns="http://www.w3.org/2000/svg" xmlns:xlink="http://www.w3.org/1999/xlink"
	 width="800px" height="800px" viewBox="0 0 123.428 123.428"
	 xml:space="preserve">
<g>
	<path d="M117.302,0c-2.87,0-5.195,2.327-5.195,5.197v10.394H11.322V5.197C11.322,2.327,8.995,0,6.126,0
		c-2.87,0-5.197,2.327-5.197,5.197V118.23c0,2.869,2.327,5.196,5.197,5.196c2.869,0,5.196-2.327,5.196-5.196V19.488h25.593
		c-0.657,1.105-0.686,2.527,0.063,3.676l15.133,23.22c0.196,0.304,0.438,0.561,0.7,0.778v19.24c0,1.533,0.476,2.899,1.272,4.055
		l-10.684,29.925c-0.766,2.14,0.35,4.495,2.49,5.259c0.457,0.162,0.925,0.241,1.384,0.241c1.69,0,3.275-1.05,3.875-2.733
		l10.303-28.854c0.181,0.009,0.357,0.021,0.539,0.021c0.504,0,1.004-0.043,1.498-0.112l10.334,28.946
		c0.601,1.684,2.186,2.732,3.875,2.732c0.459,0,0.928-0.079,1.385-0.241c2.141-0.764,3.254-3.12,2.492-5.259L70.505,69.388
		c0.422-0.903,0.664-1.901,0.664-2.985V46.609c0-0.009-0.001-0.016-0.001-0.025c0.049-0.064,0.104-0.129,0.149-0.199l15.133-23.22
		c0.748-1.148,0.72-2.57,0.061-3.676h25.596v98.742c0,2.871,2.325,5.197,5.195,5.197s5.197-2.327,5.197-5.197V5.197
		C122.499,2.327,120.172,0,117.302,0z M60.593,39.594c0.456,0.071,0.921,0.119,1.396,0.119c0.5,0,0.988-0.052,1.469-0.131
		l-1.469,1.479L60.593,39.594z M67.144,40.034c-0.625-0.381-1.296-0.669-1.979-0.911c3.384-1.282,5.793-4.546,5.793-8.379
		c0-4.952-4.016-8.968-8.969-8.968c-4.954,0-8.968,4.016-8.968,8.968c0,3.814,2.386,7.063,5.742,8.361
		c-0.814,0.29-1.603,0.683-2.323,1.171L42.894,19.488h37.638L67.144,40.034z"/>
</g>
</svg>